[Header]
FileType HTR
DataType HTRS
FileVersion 1
NumSegments 64
NumFrames 4
DataFrameRate 24
EulerRotationOrder ZYX
CalibrationUnits mm
RotationUnits Degrees
GlobalAxisofGravity Y
BoneLengthAxis Y
ScaleFactor 1.0
[SegmentNames&Hierarchy]
Hips	GLOBAL
Spine	Hips
Spine1	Spine
Spine2	Spine1
Neck	Spine2
Head	Neck
LeftEye	Head
RightEye	Head
LeftShoulder	Spine2
LeftArm	LeftShoulder
LeftForeArm	LeftArm
LeftHand	LeftForeArm
LeftHandThumb1	LeftHand
LeftHandThumb2	LeftHandThumb1
LeftHandThumb3	LeftHandThumb2
LeftHandThumb4	LeftHandThumb3
LeftHandIndex1	LeftHand
LeftHandIndex2	LeftHandIndex1
LeftHandIndex3	LeftHandIndex2
LeftHandIndex4	LeftHandIndex3
LeftHandMiddle1	LeftHand
LeftHandMiddle2	LeftHandMiddle1
LeftHandMiddle3	LeftHandMiddle2
LeftHandMiddle4	LeftHandMiddle3
LeftHandRing1	LeftHand
LeftHandRing2	LeftHandRing1
LeftHandRing3	LeftHandRing2
LeftHandRing4	LeftHandRing3
LeftHandPinky1	LeftHand
LeftHandPinky2	LeftHandPinky1
LeftHandPinky3	LeftHandPinky2
LeftHandPinky4	LeftHandPinky3
RightShoulder	Spine2
RightArm	RightShoulder
RightForeArm	RightArm
RightHand	RightForeArm
RightHandPinky1	RightHand
RightHandPinky2	RightHandPinky1
RightHandPinky3	RightHandPinky2
RightHandPinky4	RightHandPinky3
RightHandRing1	RightHand
RightHandRing2	RightHandRing1
RightHandRing3	RightHandRing2
RightHandRing4	RightHandRing3
RightHandMiddle1	RightHand
RightHandMiddle2	RightHandMiddle1
RightHandMiddle3	RightHandMiddle2
RightHandMiddle4	RightHandMiddle3
RightHandIndex1	RightHand
RightHandIndex2	RightHandIndex1
RightHandIndex3	RightHandIndex2
RightHandIndex4	RightHandIndex3
RightHandThumb1	RightHand
RightHandThumb2	RightHandThumb1
RightHandThumb3	RightHandThumb2
RightHandThumb4	RightHandThumb3
LeftUpLeg	Hips
LeftLeg	LeftUpLeg
LeftFoot	LeftLeg
LeftToeBase	LeftFoot
RightUpLeg	Hips
RightLeg	RightUpLeg
RightFoot	RightLeg
RightToeBase	RightFoot
[BasePosition]
Hips	0	0	0	0	0	0	1
Spine	0	0	0	0	0	0	1
Spine1	0	0	0	0	0	0	1
Spine2	0	0	0	0	0	0	1
Neck	0	0	0	0	0	0	1
Head	0	0	0	0	0	0	1
LeftEye	0	0	0	0	0	0	1
RightEye	0	0	0	0	0	0	1
LeftShoulder	0	0	0	0	0	0	1
LeftArm	0	0	0	0	0	0	1
LeftForeArm	0	0	0	0	0	0	1
LeftHand	0	0	0	0	0	0	1
LeftHandThumb1	0	0	0	0	0	0	1
LeftHandThumb2	0	0	0	0	0	0	1
LeftHandThumb3	0	0	0	0	0	0	1
LeftHandThumb4	0	0	0	0	0	0	1
LeftHandIndex1	0	0	0	0	0	0	1
LeftHandIndex2	0	0	0	0	0	0	1
LeftHandIndex3	0	0	0	0	0	0	1
LeftHandIndex4	0	0	0	0	0	0	1
LeftHandMiddle1	0	0	0	0	0	0	1
LeftHandMiddle2	0	0	0	0	0	0	1
LeftHandMiddle3	0	0	0	0	0	0	1
LeftHandMiddle4	0	0	0	0	0	0	1
LeftHandRing1	0	0	0	0	0	0	1
LeftHandRing2	0	0	0	0	0	0	1
LeftHandRing3	0	0	0	0	0	0	1
LeftHandRing4	0	0	0	0	0	0	1
LeftHandPinky1	0	0	0	0	0	0	1
LeftHandPinky2	0	0	0	0	0	0	1
LeftHandPinky3	0	0	0	0	0	0	1
LeftHandPinky4	0	0	0	0	0	0	1
RightShoulder	0	0	0	0	0	0	1
RightArm	0	0	0	0	0	0	1
RightForeArm	0	0	0	0	0	0	1
RightHand	0	0	0	0	0	0	1
RightHandPinky1	0	0	0	0	0	0	1
RightHandPinky2	0	0	0	0	0	0	1
RightHandPinky3	0	0	0	0	0	0	1
RightHandPinky4	0	0	0	0	0	0	1
RightHandRing1	0	0	0	0	0	0	1
RightHandRing2	0	0	0	0	0	0	1
RightHandRing3	0	0	0	0	0	0	1
RightHandRing4	0	0	0	0	0	0	1
RightHandMiddle1	0	0	0	0	0	0	1
RightHandMiddle2	0	0	0	0	0	0	1
RightHandMiddle3	0	0	0	0	0	0	1
RightHandMiddle4	0	0	0	0	0	0	1
RightHandIndex1	0	0	0	0	0	0	1
RightHandIndex2	0	0	0	0	0	0	1
RightHandIndex3	0	0	0	0	0	0	1
RightHandIndex4	0	0	0	0	0	0	1
RightHandThumb1	0	0	0	0	0	0	1
RightHandThumb2	0	0	0	0	0	0	1
RightHandThumb3	0	0	0	0	0	0	1
RightHandThumb4	0	0	0	0	0	0	1
LeftUpLeg	0	0	0	0	0	0	1
LeftLeg	0	0	0	0	0	0	1
LeftFoot	0	0	0	0	0	0	1
LeftToeBase	0	0	0	0	0	0	1
RightUpLeg	0	0	0	0	0	0	1
RightLeg	0	0	0	0	0	0	1
RightFoot	0	0	0	0	0	0	1
RightToeBase	0	0	0	0	0	0	1
[Hips]
93	-209.3624573	993.1954346	20.65015411	8.492950439	-1.129182577	-10.83224964	1.0
94	-228.0749664	1020.704651	33.33194733	8.2377491	-1.007820487	-10.56552505	1.0
95	-244.7689819	1031.896973	53.36141586	6.953232288	0.04898393527	-8.719069481	1.0
96	-260.3086548	1025.418701	79.4332428	5.173604488	2.573090076	-5.928713799	1.0
[Spine]
93	0	101.8159943	1.315000057	8.257685661	-4.618550301	2.065188646	1.0
94	0	101.8159943	1.315000057	7.244375229	-4.832346439	2.053129673	1.0
95	0	101.8159943	1.315000057	6.145967484	-4.851647377	1.272979259	1.0
96	0	101.8159943	1.315000057	5.203087807	-5.2254529	0.2802820504	1.0
[Spine1]
93	0	100.8349991	-10.00800037	3.657925606	-0.6272451282	0.9606273174	1.0
94	0	100.8349991	-10.00800037	3.203778028	-0.67200315	0.716227591	1.0
95	0	100.8349991	-10.00800037	2.452519655	-0.7057692409	0.3162590861	1.0
96	0	100.8349991	-10.00800037	1.556146502	-0.7923005223	0.02889195271	1.0
[Spine2]
93	0	91	-13.73399925	3.660816431	-0.6096485257	0.9311106801	1.0
94	0	91	-13.73399925	3.203435898	-0.6683328748	0.6894922853	1.0
95	0	91	-13.73399925	2.44637394	-0.718675375	0.2988215685	1.0
96	0	91	-13.73399925	1.545193911	-0.8112944961	0.02315311506	1.0
[Neck]
93	0	166.7169952	-25.16200066	-3.769096375	1.265533566	4.756328583	1.0
94	0	166.7169952	-25.16200066	-3.479482651	1.140789866	6.367429733	1.0
95	0	166.7169952	-25.16200066	-1.58314085	0.7697470188	7.194001198	1.0
96	0	166.7169952	-25.16200066	0.9158670306	0.4285923541	6.797255516	1.0
[Head]
93	0	96.17900085	16.84999847	-26.67329788	11.00437737	-1.080738306	1.0
94	0	96.17900085	16.84999847	-22.52217865	11.57491207	-1.855559587	1.0
95	0	96.17900085	16.84999847	-17.17808342	10.78778648	-2.323199034	1.0
96	0	96.17900085	16.84999847	-13.05760765	9.347578049	-3.748948812	1.0
[LeftEye]
93	30.6760006	64.09500122	92.83599854	0	0	0	1.0
94	30.6760006	64.09500122	92.83599854	0	0	0	1.0
95	30.6760006	64.09500122	92.83599854	0	0	0	1.0
96	30.6760006	64.09500122	92.83599854	0	0	0	1.0
[RightEye]
93	-30.6760006	64.09500122	92.83499908	0	0	0	1.0
94	-30.6760006	64.09500122	92.83499908	0	0	0	1.0
95	-30.6760006	64.09500122	92.83499908	0	0	0	1.0
96	-30.6760006	64.09500122	92.83499908	0	0	0	1.0
[LeftShoulder]
93	45.70400238	109.4599991	-26.28000069	3.478296041	-32.00167847	-3.660902262	1.0
94	45.70400238	109.4599991	-26.28000069	3.525188208	-31.91526985	-3.829201221	1.0
95	45.70400238	109.4599991	-26.28000069	3.774080276	-31.39426231	-4.751959801	1.0
96	45.70400238	109.4599991	-26.28000069	4.183059692	-30.33813286	-6.372973442	1.0
[LeftArm]
93	105.923996	-5.24600029	-22.32099915	-29.28105927	-57.39786911	2.392357111	1.0
94	105.923996	-5.24600029	-22.32099915	-23.69432449	-57.78342056	-12.85097408	1.0
95	105.923996	-5.24600029	-22.32099915	-9.196866989	-56.08948517	-25.81554604	1.0
96	105.923996	-5.24600029	-22.32099915	15.49470806	-52.94303513	-33.79748154	1.0
[LeftForeArm]
93	278.414978	-0.0009999999311	0	-2.97534225e-05	-70.39897919	-0.000213665553	1.0
94	278.414978	-0.0009999999311	0	5.704213891e-06	-66.27985382	-0.0002056711674	1.0
95	278.414978	-0.0009999999311	0	-1.480494302e-05	-56.25183487	-0.0001911559666	1.0
96	278.414978	-0.0009999999311	0	6.656972005e-07	-46.03818512	-0.0002035645302	1.0
[LeftHand]
93	283.2879944	0	0	22.5351963	-8.819844246	26.25356674	1.0
94	283.2879944	0	0	14.41296482	-23.10587502	39.39514542	1.0
95	283.2879944	0	0	13.57207584	-28.97517204	25.75369453	1.0
96	283.2879944	0	0	20.4893055	-19.75619698	0.25351578	1.0
[LeftHandThumb1]
93	24.6609993	-15.75	26.8239994	-1.441469431	-8.319266319	8.653975487	1.0
94	24.6609993	-15.75	26.8239994	-1.441473484	-8.319275856	8.653968811	1.0
95	24.6609993	-15.75	26.8239994	-1.44146955	-8.319263458	8.653967857	1.0
96	24.6609993	-15.75	26.8239994	-1.441458464	-8.319267273	8.653964043	1.0
[LeftHandThumb2]
93	32.29800034	-18.64699936	18.64699936	6.693689823	35.79096222	-1.548082829	1.0
94	32.29800034	-18.64699936	18.64699936	6.693633556	35.79051208	-1.547476649	1.0
95	32.29800034	-18.64699936	18.64699936	6.694749355	35.80328751	-1.565927029	1.0
96	32.29800034	-18.64699936	18.64699936	6.694334507	35.79848862	-1.558944106	1.0
[LeftHandThumb3]
93	26.52600098	-15.31499958	15.31499958	-0.8592479825	28.98293686	24.40020943	1.0
94	26.52600098	-15.31499958	15.31499958	-0.8594745994	28.98239326	24.40027809	1.0
95	26.52600098	-15.31499958	15.31499958	-0.8521492481	28.99892807	24.39870453	1.0
96	26.52600098	-15.31499958	15.31499958	-0.8549236655	28.99269485	24.39927673	1.0
[LeftHandThumb4]
93	19.54599953	-11.28499985	11.28499985	0	0	0	1.0
94	19.54599953	-11.28499985	11.28499985	0	0	0	1.0
95	19.54599953	-11.28499985	11.28499985	0	0	0	1.0
96	19.54599953	-11.28499985	11.28499985	0	0	0	1.0
[LeftHandIndex1]
93	91.09299469	-5.170999527	22.60099792	2.075231314	6.374016762	-51.86443329	1.0
94	91.09299469	-5.170999527	22.60099792	2.075330496	6.373907566	-51.86368942	1.0
95	91.09299469	-5.170999527	22.60099792	2.072328329	6.376852989	-51.88579178	1.0
96	91.09299469	-5.170999527	22.60099792	2.07346034	6.375746727	-51.87745667	1.0
[LeftHandIndex2]
93	36.76399994	0	0	-5.084234715	5.778056622	-82.67962646	1.0
94	36.76399994	0	0	-5.08424139	5.778058529	-82.67964935	1.0
95	36.76399994	0	0	-5.084236622	5.778060436	-82.67965698	1.0
96	36.76399994	0	0	-5.084237576	5.778056145	-82.67964172	1.0
[LeftHandIndex3]
93	28.83100128	0	0	-6.449677944	5.791766644	-96.164505	1.0
94	28.83100128	0	0	-6.449676037	5.791762829	-96.16448975	1.0
95	28.83100128	0	0	-6.449673176	5.791759968	-96.16449738	1.0
96	28.83100128	0	0	-6.449676991	5.791762352	-96.16449738	1.0
[LeftHandIndex4]
93	23.92700005	0	0	0	0	0	1.0
94	23.92700005	0	0	0	0	0	1.0
95	23.92700005	0	0	0	0	0	1.0
96	23.92700005	0	0	0	0	0	1.0
[LeftHandMiddle1]
93	95.33399963	0	0	-6.494753361	5.273252487	-74.30393219	1.0
94	95.33399963	0	0	-6.494760513	5.273251534	-74.30393982	1.0
95	95.33399963	0	0	-6.49476099	5.273260593	-74.30394745	1.0
96	95.33399963	0	0	-6.494761467	5.273266315	-74.30393982	1.0
[LeftHandMiddle2]
93	36.98199844	0	0	-7.583496571	5.554381371	-107.5965805	1.0
94	36.98199844	0	0	-7.583495617	5.554387093	-107.5965958	1.0
95	36.98199844	0	0	-7.583496571	5.554389	-107.5966034	1.0
96	36.98199844	0	0	-7.583503723	5.554394245	-107.5965881	1.0
[LeftHandMiddle3]
93	29.50900078	0	0	-1.61679852	4.031328678	-43.69363785	1.0
94	29.50900078	0	0	-1.616745591	4.031272888	-43.69284821	1.0
95	29.50900078	0	0	-1.618370891	4.032966614	-43.71603012	1.0
96	29.50900078	0	0	-1.617754817	4.032329559	-43.70729065	1.0
[LeftHandMiddle4]
93	28.3390007	0	0	0	0	0	1.0
94	28.3390007	0	0	0	0	0	1.0
95	28.3390007	0	0	0	0	0	1.0
96	28.3390007	0	0	0	0	0	1.0
[LeftHandRing1]
93	91.04499817	-0.4390000105	-18.65100098	-8.449879646	1.972003579	-92.66306305	1.0
94	91.04499817	-0.4390000105	-18.65100098	-8.449920654	1.97197628	-92.66339874	1.0
95	91.04499817	-0.4390000105	-18.65100098	-8.448872566	1.97253418	-92.65289307	1.0
96	91.04499817	-0.4390000105	-18.65100098	-8.449266434	1.972332954	-92.65686798	1.0
[LeftHandRing2]
93	31.54000092	0	0	-5.443724632	5.812747002	-86.23862457	1.0
94	31.54000092	0	0	-5.443704128	5.812746525	-86.23836517	1.0
95	31.54000092	0	0	-5.44436264	5.812789917	-86.24487305	1.0
96	31.54000092	0	0	-5.444108486	5.812771797	-86.24243927	1.0
[LeftHandRing3]
93	29.37700081	0	0	-1.45287478	3.852872849	-41.30955124	1.0
94	29.37700081	0	0	-1.452835083	3.852831364	-41.30905914	1.0
95	29.37700081	0	0	-1.453855991	3.853973866	-41.32409668	1.0
96	29.37700081	0	0	-1.453468204	3.853541851	-41.31842422	1.0
[LeftHandRing4]
93	26.47500038	0	0	0	0	0	1.0
94	26.47500038	0	0	0	0	0	1.0
95	26.47500038	0	0	0	0	0	1.0
96	26.47500038	0	0	0	0	0	1.0
[LeftHandPinky1]
93	80.77799988	-4.887000084	-38.06099701	-16.68251228	2.77772212	-98.34607697	1.0
94	80.77799988	-4.887000084	-38.06099701	-16.68253326	2.777646542	-98.34645844	1.0
95	80.77799988	-4.887000084	-38.06099701	-16.68182945	2.779780865	-98.33558655	1.0
96	80.77799988	-4.887000084	-38.06099701	-16.6821003	2.778984785	-98.33968353	1.0
[LeftHandPinky2]
93	36	0	0	-2.199986219	4.562767506	-51.46516037	1.0
94	36	0	0	-2.199982643	4.562758446	-51.46507645	1.0
95	36	0	0	-2.200196028	4.562916279	-51.46772766	1.0
96	36	0	0	-2.200102091	4.562849522	-51.46670914	1.0
[LeftHandPinky3]
93	21.14200211	0	0	-2.345814943	4.674815178	-53.27599716	1.0
94	21.14200211	0	0	-2.345756292	4.674761295	-53.27521896	1.0
95	21.14200211	0	0	-2.347603798	4.676130295	-53.29790115	1.0
96	21.14200211	0	0	-2.346905231	4.675616264	-53.28936768	1.0
[LeftHandPinky4]
93	19.75699997	0	0	0	0	0	1.0
94	19.75699997	0	0	0	0	0	1.0
95	19.75699997	0	0	0	0	0	1.0
96	19.75699997	0	0	0	0	0	1.0
[RightShoulder]
93	-45.70000076	109.4620056	-26.28000069	-0.5142102242	24.88980484	-10.947752	1.0
94	-45.70000076	109.4620056	-26.28000069	1.002934456	26.4100666	-5.11777401	1.0
95	-45.70000076	109.4620056	-26.28000069	2.941721678	26.70010376	2.145889521	1.0
96	-45.70000076	109.4620056	-26.28000069	4.682053089	24.53300285	8.922818184	1.0
[RightArm]
93	-105.9280014	-5.248000145	-22.32099915	-36.51743698	44.76460648	8.806735992	1.0
94	-105.9280014	-5.248000145	-22.32099915	-30.62206841	50.81236649	18.84571648	1.0
95	-105.9280014	-5.248000145	-22.32099915	-14.9620285	51.20105362	37.20400238	1.0
96	-105.9280014	-5.248000145	-22.32099915	0.07134884596	43.8754921	48.67747116	1.0
[RightForeArm]
93	-278.414978	0	0	4.577534128e-05	94.79447937	6.103478518e-05	1.0
94	-278.414978	0	0	-0.001052856445	90.46724701	-0.0002288818359	1.0
95	-278.414978	0	0	7.730947254e-05	81.16814423	-7.762045425e-05	1.0
96	-278.414978	0	0	1.513600637e-05	73.13356018	1.712794256e-05	1.0
[RightHand]
93	-283.2879944	0	0.0009999999311	1.372668266	5.476178646	-17.33087921	1.0
94	-283.2879944	0	0.0009999999311	-2.021742821	19.62848473	-32.34514999	1.0
95	-283.2879944	0	0.0009999999311	-7.57005167	29.82724762	-37.52546692	1.0
96	-283.2879944	0	0.0009999999311	-7.217615128	36.31715012	-27.53597069	1.0
[RightHandPinky1]
93	-80.76699829	-4.885000229	-38.06000137	-15.18223667	-1.629498005	97.58633423	1.0
94	-80.76699829	-4.885000229	-38.06000137	-15.1822443	-1.629496098	97.58633423	1.0
95	-80.76699829	-4.885000229	-38.06000137	-15.18224239	-1.629494667	97.58631134	1.0
96	-80.76699829	-4.885000229	-38.06000137	-15.18224239	-1.629505873	97.58633423	1.0
[RightHandPinky2]
93	-36	0	0.0009999999311	-1.749816775	-3.626892567	51.51878357	1.0
94	-36	0	0.0009999999311	-1.749816418	-3.626905918	51.5187912	1.0
95	-36	0	0.0009999999311	-1.74981451	-3.626899481	51.51879883	1.0
96	-36	0	0.0009999999311	-1.749817729	-3.626900196	51.51877594	1.0
[RightHandPinky3]
93	-21.14200211	0	0	-1.867233038	-3.717076778	53.33226013	1.0
94	-21.14200211	0	0	-1.867227793	-3.717078209	53.33224869	1.0
95	-21.14200211	0	0	-1.867233038	-3.717077971	53.33226013	1.0
96	-21.14200211	0	0	-1.867236257	-3.717086792	53.33226013	1.0
[RightHandPinky4]
93	-19.75699997	0	0	0	0	0	1.0
94	-19.75699997	0	0	0	0	0	1.0
95	-19.75699997	0	0	0	0	0	1.0
96	-19.75699997	0	0	0	0	0	1.0
[RightHandRing1]
93	-91.03599548	-0.4390000105	-18.65100098	-7.065035343	-0.7974063754	91.91009521	1.0
94	-91.03599548	-0.4390000105	-18.65100098	-7.065032959	-0.7974032164	91.91008759	1.0
95	-91.03599548	-0.4390000105	-18.65100098	-7.065038681	-0.7973994017	91.91007233	1.0
96	-91.03599548	-0.4390000105	-18.65100098	-7.065032482	-0.7974140644	91.91010284	1.0
[RightHandRing2]
93	-31.54000092	0	0	-4.327741146	-4.620629311	86.24687958	1.0
94	-31.54000092	0	0	-4.32774353	-4.620632648	86.24687958	1.0
95	-31.54000092	0	0	-4.327750683	-4.620632172	86.24689484	1.0
96	-31.54000092	0	0	-4.327745914	-4.620629787	86.24686432	1.0
[RightHandRing3]
93	-29.37700081	0	0	-1.156968713	-3.063933134	41.36634064	1.0
94	-29.37700081	0	0	-1.156971931	-3.063928604	41.36634445	1.0
95	-29.37700081	0	0	-1.156967521	-3.063938379	41.36634445	1.0
96	-29.37700081	0	0	-1.156971812	-3.06393528	41.36635208	1.0
[RightHandRing4]
93	-26.47500038	0	0	0	0	0	1.0
94	-26.47500038	0	0	0	0	0	1.0
95	-26.47500038	0	0	0	0	0	1.0
96	-26.47500038	0	0	0	0	0	1.0
[RightHandMiddle1]
93	-95.32500458	0	0	-5.490186214	-4.098497868	73.57291412	1.0
94	-95.32500458	0	0	-5.490189552	-4.098498821	73.57289124	1.0
95	-95.32500458	0	0	-5.490195274	-4.098493576	73.57287598	1.0
96	-95.32500458	0	0	-5.490187645	-4.098500252	73.57289124	1.0
[RightHandMiddle2]
93	-36.98199844	0	0	-6.026573181	-4.415498257	107.5651245	1.0
94	-36.98199844	0	0	-6.026579857	-4.415496826	107.5651093	1.0
95	-36.98199844	0	0	-6.026586533	-4.415501595	107.5651398	1.0
96	-36.98199844	0	0	-6.026583672	-4.415493011	107.5651321	1.0
[RightHandMiddle3]
93	-29.50900078	0	0	-1.287465453	-3.20785737	43.75226974	1.0
94	-29.50900078	0	0	-1.287467599	-3.207853079	43.75226212	1.0
95	-29.50900078	0	0	-1.2874614	-3.207856417	43.7522583	1.0
96	-29.50900078	0	0	-1.287470222	-3.207855463	43.75226212	1.0
[RightHandMiddle4]
93	-28.3390007	0	0.0009999999311	0	0	0	1.0
94	-28.3390007	0	0.0009999999311	0	0	0	1.0
95	-28.3390007	0	0.0009999999311	0	0	0	1.0
96	-28.3390007	0	0.0009999999311	0	0	0	1.0
[RightHandIndex1]
93	-91.08300018	-5.167999744	22.60099792	2.643072128	-5.360717773	51.18569183	1.0
94	-91.08300018	-5.167999744	22.60099792	2.643070936	-5.360724926	51.18568039	1.0
95	-91.08300018	-5.167999744	22.60099792	2.643068552	-5.360724926	51.18567276	1.0
96	-91.08300018	-5.167999744	22.60099792	2.643080711	-5.360724449	51.1856842	1.0
[RightHandIndex2]
93	-36.76399994	0	0	-4.042250633	-4.593087196	82.69343567	1.0
94	-36.76399994	0	0	-4.042242527	-4.593081951	82.69342804	1.0
95	-36.76399994	0	0	-4.042239189	-4.593080997	82.69342804	1.0
96	-36.76399994	0	0	-4.042250633	-4.593080997	82.6934433	1.0
[RightHandIndex3]
93	-28.83100128	0	0	-5.126290798	-4.603962421	96.15284729	1.0
94	-28.83100128	0	0	-5.126282692	-4.603963375	96.15285492	1.0
95	-28.83100128	0	0	-5.126284122	-4.603962421	96.15285492	1.0
96	-28.83100128	0	0	-5.126284599	-4.603960514	96.15285492	1.0
[RightHandIndex4]
93	-23.92700005	0	0	0	0	0	1.0
94	-23.92700005	0	0	0	0	0	1.0
95	-23.92700005	0	0	0	0	0	1.0
96	-23.92700005	0	0	0	0	0	1.0
[RightHandThumb1]
93	-24.64799881	-15.72700024	26.82600021	-2.388244867	10.1685915	-8.287018776	1.0
94	-24.64799881	-15.72700024	26.82600021	-2.388244867	10.1685915	-8.287028313	1.0
95	-24.64799881	-15.72700024	26.82600021	-2.38824749	10.16858864	-8.287022591	1.0
96	-24.64799881	-15.72700024	26.82600021	-2.388234377	10.16859436	-8.287042618	1.0
[RightHandThumb2]
93	-32.29800034	-18.64699936	18.64699936	7.070500851	-37.46695328	0.6013727188	1.0
94	-32.29800034	-18.64699936	18.64699936	7.070497036	-37.46694183	0.6014001369	1.0
95	-32.29800034	-18.64699936	18.64699936	7.070497513	-37.46693039	0.6013939977	1.0
96	-32.29800034	-18.64699936	18.64699936	7.070490837	-37.46693802	0.6013989449	1.0
[RightHandThumb3]
93	-26.52600098	-15.31399918	15.31399918	3.291620493	-34.41184616	-26.1004715	1.0
94	-26.52600098	-15.31399918	15.31399918	3.291624069	-34.41185379	-26.10047913	1.0
95	-26.52600098	-15.31399918	15.31399918	3.291640997	-34.41185379	-26.10051155	1.0
96	-26.52600098	-15.31399918	15.31399918	3.29163003	-34.41184998	-26.10049629	1.0
[RightHandThumb4]
93	-19.54599953	-11.28499985	11.28499985	0	0	0	1.0
94	-19.54599953	-11.28499985	11.28499985	0	0	0	1.0
95	-19.54599953	-11.28499985	11.28499985	0	0	0	1.0
96	-19.54599953	-11.28499985	11.28499985	0	0	0	1.0
[LeftUpLeg]
93	82.07800293	-67.51699829	-15.99599934	-30.7797699	25.98352623	8.192186356	1.0
94	82.07800293	-67.51699829	-15.99599934	-30.90653801	26.44036865	7.035568714	1.0
95	82.07800293	-67.51699829	-15.99599934	-30.03418159	24.96655846	2.048328638	1.0
96	82.07800293	-67.51699829	-15.99599934	-24.8901329	22.57008171	-5.132990837	1.0
[LeftLeg]
93	0	-443.7049866	2.845999956	42.94904709	4.956297398	6.045833588	1.0
94	0	-443.7049866	2.845999956	40.76369095	4.504792213	5.165896893	1.0
95	0	-443.7049866	2.845999956	37.6649437	2.614430428	3.30180788	1.0
96	0	-443.7049866	2.845999956	25.97428513	2.74294281	2.852921724	1.0
[LeftFoot]
93	0	-444.2789917	-29.8219986	-15.6289959	10.77593708	-1.869389534	1.0
94	0	-444.2789917	-29.8219986	-5.277769566	9.65940094	-0.09568689764	1.0
95	0	-444.2789917	-29.8219986	-6.581130505	10.07464027	-2.622044086	1.0
96	0	-444.2789917	-29.8219986	-5.955845833	16.6526947	-0.06494991481	1.0
[LeftToeBase]
93	0	-87.28699493	107.1060028	-7.356325626	2.786799314e-06	3.391148766e-06	1.0
94	0	-87.28699493	107.1060028	-7.95425272	-1.309920572e-05	3.329326319e-06	1.0
95	0	-87.28699493	107.1060028	-4.660473824	1.215246721e-05	1.169223196e-06	1.0
96	0	-87.28699493	107.1060028	-5.646143913	0.07052615285	0.7752566934	1.0
[RightUpLeg]
93	-82.07800293	-67.51699829	-15.99599934	-77.06498718	-26.89910316	4.978531361	1.0
94	-82.07800293	-67.51699829	-15.99599934	-65.71644592	-22.53127289	0.5453461409	1.0
95	-82.07800293	-67.51699829	-15.99599934	-48.71927261	-13.71923828	-6.825276852	1.0
96	-82.07800293	-67.51699829	-15.99599934	-31.74863625	-3.484493971	-12.3969059	1.0
[RightLeg]
93	0	-443.7049866	2.861999989	87.70926666	0.7640948892	-10.13565254	1.0
94	0	-443.7049866	2.861999989	77.00180054	-1.389144063	-10.34385014	1.0
95	0	-443.7049866	2.861999989	58.19019318	-4.365776539	-8.059551239	1.0
96	0	-443.7049866	2.861999989	37.17393494	-5.621650696	-4.602814198	1.0
[RightFoot]
93	0	-444.2770081	-29.83799934	6.28199625	-12.39761925	6.34344244	1.0
94	0	-444.2770081	-29.83799934	9.43678093	-10.02431393	11.89804459	1.0
95	0	-444.2770081	-29.83799934	13.35394192	-5.968733788	21.34365845	1.0
96	0	-444.2770081	-29.83799934	16.67405128	-4.926847935	24.42815208	1.0
[RightToeBase]
93	0	-87.28699493	107.1060028	2.219382524	1.842839811e-05	-4.397222256e-06	1.0
94	0	-87.28699493	107.1060028	2.488159418	1.03737575e-05	-1.65787597e-07	1.0
95	0	-87.28699493	107.1060028	0.0183004383	-6.051770015e-06	5.259219961e-06	1.0
96	0	-87.28699493	107.1060028	-7.232129097	4.371767318e-06	1.357866608e-06	1.0
[EndOfFile]
